<svg width="860" height="600" viewBox="0 0 860 600" xmlns="http://www.w3.org/2000/svg" font-family="'SFMono-Regular', 'Fira Code', Menlo, Consolas, monospace">
  <!-- Window chrome -->
  <rect width="860" height="600" rx="10" fill="#0d1117" stroke="#30363d"/>
  <rect width="860" height="36" rx="10" fill="#161b22"/>
  <rect y="20" width="860" height="16" fill="#161b22"/>

  <circle cx="22" cy="18" r="6" fill="#ff5f56"/>
  <circle cx="44" cy="18" r="6" fill="#ffbd2e"/>
  <circle cx="66" cy="18" r="6" fill="#27c93f"/>

  <text x="430" y="22" font-size="13" fill="#8b949e" text-anchor="middle">avanish@4vanish: ~/profile</text>

  <g>
    <circle cx="794" cy="18" r="4" fill="#3fb950">
      <animate attributeName="opacity" values="1;0.3;1" dur="1.6s" repeatCount="indefinite"/>
    </circle>
    <text x="806" y="22" font-size="11" fill="#3fb950" font-weight="600">ACTIVE</text>
  </g>

  <!-- Prompt -->
  <g transform="translate(24, 72)">
    <text font-size="13" fill="#ffa657">avanish</text>
    <text x="56" font-size="13" fill="#8b949e">@</text>
    <text x="68" font-size="13" fill="#79c0ff">4vanish</text>
    <text x="128" font-size="13" fill="#8b949e">~</text>
    <text x="140" font-size="13" fill="#3fb950">$</text>
    <text x="156" font-size="13" fill="#c9d1d9">cat profile.json</text>
  </g>

  <!-- IDENTITY — increased height for bottom padding -->
  <g transform="translate(24, 104)">
    <rect width="812" height="140" rx="8" fill="#161b22" stroke="#30363d"/>
    <text x="20" y="26" font-size="11" fill="#7ee787" font-weight="600">▸ IDENTITY</text>
    <line x1="20" y1="40" x2="792" y2="40" stroke="#21262d"/>

    <text x="20" y="76" font-size="12" fill="#8b949e">name</text>
    <text x="120" y="76" font-size="12" fill="#c9d1d9">Avanish Pathak</text>

    <text x="20" y="100" font-size="12" fill="#8b949e">role</text>
    <text x="120" y="100" font-size="12" fill="#c9d1d9">Security Researcher · Red Team · Penetration Tester</text>

    <text x="20" y="124" font-size="12" fill="#8b949e">located</text>
    <text x="120" y="124" font-size="12" fill="#c9d1d9">Abu Dhabi, UAE 🇦🇪</text>
  </g>

  <!-- DOMAINS — increased height for bottom padding -->
  <g transform="translate(24, 264)">
    <rect width="812" height="94" rx="8" fill="#161b22" stroke="#30363d"/>
    <text x="20" y="26" font-size="11" fill="#7ee787" font-weight="600">▸ DOMAINS</text>
    <line x1="20" y1="40" x2="792" y2="40" stroke="#21262d"/>

    <g transform="translate(20, 60)">
      <rect width="56" height="22" rx="11" fill="#1f6feb33" stroke="#1f6feb"/>
      <text x="28" y="15" font-size="11" fill="#79c0ff" text-anchor="middle">Web</text>
    </g>
    <g transform="translate(84, 60)">
      <rect width="64" height="22" rx="11" fill="#1f6feb33" stroke="#1f6feb"/>
      <text x="32" y="15" font-size="11" fill="#79c0ff" text-anchor="middle">Mobile</text>
    </g>
    <g transform="translate(156, 60)">
      <rect width="48" height="22" rx="11" fill="#1f6feb33" stroke="#1f6feb"/>
      <text x="24" y="15" font-size="11" fill="#79c0ff" text-anchor="middle">API</text>
    </g>
    <g transform="translate(212, 60)">
      <rect width="44" height="22" rx="11" fill="#1f6feb33" stroke="#1f6feb"/>
      <text x="22" y="15" font-size="11" fill="#79c0ff" text-anchor="middle">OT</text>
    </g>
    <g transform="translate(264, 60)">
      <rect width="74" height="22" rx="11" fill="#1f6feb33" stroke="#1f6feb"/>
      <text x="37" y="15" font-size="11" fill="#79c0ff" text-anchor="middle">Network</text>
    </g>
    <g transform="translate(346, 60)">
      <rect width="92" height="22" rx="11" fill="#1f6feb33" stroke="#1f6feb"/>
      <text x="46" y="15" font-size="11" fill="#79c0ff" text-anchor="middle">Cloud · AWS</text>
    </g>
    <g transform="translate(446, 60)">
      <rect width="68" height="22" rx="11" fill="#bf5af233" stroke="#bf5af2"/>
      <text x="34" y="15" font-size="11" fill="#d2a8ff" text-anchor="middle">AI / LLM</text>
    </g>
  </g>

  <!-- SKILLS — reduced bottom padding -->
  <g transform="translate(24, 378)">
    <rect width="812" height="190" rx="8" fill="#161b22" stroke="#30363d"/>
    <text x="20" y="26" font-size="11" fill="#7ee787" font-weight="600">▸ SKILLS</text>
    <line x1="20" y1="40" x2="792" y2="40" stroke="#21262d"/>

    <!-- Row 1 (y=60): 7 pills — AI/AppSec/Cloud start -->
    <g transform="translate(20, 60)">
      <rect width="72" height="22" rx="11" fill="#bf5af233" stroke="#bf5af2"/>
      <text x="36" y="15" font-size="11" fill="#d2a8ff" text-anchor="middle">AI / LLM</text>
    </g>
    <g transform="translate(100, 60)">
      <rect width="86" height="22" rx="11" fill="#bf5af233" stroke="#bf5af2"/>
      <text x="43" y="15" font-size="11" fill="#d2a8ff" text-anchor="middle">AI Security</text>
    </g>
    <g transform="translate(194, 60)">
      <rect width="134" height="22" rx="11" fill="#1f6feb33" stroke="#1f6feb"/>
      <text x="67" y="15" font-size="11" fill="#79c0ff" text-anchor="middle">Android pentesting</text>
    </g>
    <g transform="translate(336, 60)">
      <rect width="88" height="22" rx="11" fill="#1f6feb33" stroke="#1f6feb"/>
      <text x="44" y="15" font-size="11" fill="#79c0ff" text-anchor="middle">API Security</text>
    </g>
    <g transform="translate(432, 60)">
      <rect width="98" height="22" rx="11" fill="#3fb95033" stroke="#3fb950"/>
      <text x="49" y="15" font-size="11" fill="#7ee787" text-anchor="middle">AWS Security</text>
    </g>
    <g transform="translate(538, 60)">
      <rect width="80" height="22" rx="11" fill="#f0883e33" stroke="#f0883e"/>
      <text x="40" y="15" font-size="11" fill="#ffa657" text-anchor="middle">Bug Bounty</text>
    </g>
    <g transform="translate(626, 60)">
      <rect width="140" height="22" rx="11" fill="#3fb95033" stroke="#3fb950"/>
      <text x="70" y="15" font-size="11" fill="#7ee787" text-anchor="middle">Cloud Config Review</text>
    </g>

    <!-- Row 2 (y=90): 8 pills -->
    <g transform="translate(20, 90)">
      <rect width="84" height="22" rx="11" fill="#1f6feb33" stroke="#1f6feb"/>
      <text x="42" y="15" font-size="11" fill="#79c0ff" text-anchor="middle">Code Review</text>
    </g>
    <g transform="translate(112, 90)">
      <rect width="62" height="22" rx="11" fill="#8b949e33" stroke="#8b949e"/>
      <text x="31" y="15" font-size="11" fill="#c9d1d9" text-anchor="middle">Desktop</text>
    </g>
    <g transform="translate(182, 90)">
      <rect width="112" height="22" rx="11" fill="#8b949e33" stroke="#8b949e"/>
      <text x="56" y="15" font-size="11" fill="#c9d1d9" text-anchor="middle">External Network</text>
    </g>
    <g transform="translate(302, 90)">
      <rect width="110" height="22" rx="11" fill="#8b949e33" stroke="#8b949e"/>
      <text x="55" y="15" font-size="11" fill="#c9d1d9" text-anchor="middle">Internal Network</text>
    </g>
    <g transform="translate(420, 90)">
      <rect width="118" height="22" rx="11" fill="#8b949e33" stroke="#8b949e"/>
      <text x="59" y="15" font-size="11" fill="#c9d1d9" text-anchor="middle">PCI Segmentation</text>
    </g>
    <g transform="translate(546, 90)">
      <rect width="100" height="22" rx="11" fill="#1f6feb33" stroke="#1f6feb"/>
      <text x="50" y="15" font-size="11" fill="#79c0ff" text-anchor="middle">iOS pentesting</text>
    </g>
    <g transform="translate(654, 90)">
      <rect width="40" height="22" rx="11" fill="#8b949e33" stroke="#8b949e"/>
      <text x="20" y="15" font-size="11" fill="#c9d1d9" text-anchor="middle">IoT</text>
    </g>
    <g transform="translate(702, 90)">
      <rect width="52" height="22" rx="11" fill="#8b949e33" stroke="#8b949e"/>
      <text x="26" y="15" font-size="11" fill="#c9d1d9" text-anchor="middle">Linux</text>
    </g>

    <!-- Row 3 (y=120): 6 pills -->
    <g transform="translate(20, 120)">
      <rect width="114" height="22" rx="11" fill="#8b949e33" stroke="#8b949e"/>
      <text x="57" y="15" font-size="11" fill="#c9d1d9" text-anchor="middle">Network Security</text>
    </g>
    <g transform="translate(142, 120)">
      <rect width="116" height="22" rx="11" fill="#f0883e33" stroke="#f0883e"/>
      <text x="58" y="15" font-size="11" fill="#ffa657" text-anchor="middle">Offensive Security</text>
    </g>
    <g transform="translate(266, 120)">
      <rect width="92" height="22" rx="11" fill="#f0883e33" stroke="#f0883e"/>
      <text x="46" y="15" font-size="11" fill="#ffa657" text-anchor="middle">Red Teaming</text>
    </g>
    <g transform="translate(366, 120)">
      <rect width="126" height="22" rx="11" fill="#1f6feb33" stroke="#1f6feb"/>
      <text x="63" y="15" font-size="11" fill="#79c0ff" text-anchor="middle">Secure Code Review</text>
    </g>
    <g transform="translate(500, 120)">
      <rect width="122" height="22" rx="11" fill="#8b949e33" stroke="#8b949e"/>
      <text x="61" y="15" font-size="11" fill="#c9d1d9" text-anchor="middle">Security Hardening</text>
    </g>
    <g transform="translate(630, 120)">
      <rect width="80" height="22" rx="11" fill="#8b949e33" stroke="#8b949e"/>
      <text x="40" y="15" font-size="11" fill="#c9d1d9" text-anchor="middle">Thick Client</text>
    </g>

    <!-- Row 4 (y=150): 5 pills — TM moved to start, Windows at end -->
    <g transform="translate(20, 150)">
      <rect width="106" height="22" rx="11" fill="#f0883e33" stroke="#f0883e"/>
      <text x="53" y="15" font-size="11" fill="#ffa657" text-anchor="middle">Threat Modeling</text>
    </g>
    <g transform="translate(134, 150)">
      <rect width="148" height="22" rx="11" fill="#f0883e33" stroke="#f0883e"/>
      <text x="74" y="15" font-size="11" fill="#ffa657" text-anchor="middle">Vulnerability Assessment</text>
    </g>
    <g transform="translate(290, 150)">
      <rect width="130" height="22" rx="11" fill="#f0883e33" stroke="#f0883e"/>
      <text x="65" y="15" font-size="11" fill="#ffa657" text-anchor="middle">Vulnerability Research</text>
    </g>
    <g transform="translate(428, 150)">
      <rect width="156" height="22" rx="11" fill="#1f6feb33" stroke="#1f6feb"/>
      <text x="78" y="15" font-size="11" fill="#79c0ff" text-anchor="middle">Web Application Security</text>
    </g>
    <g transform="translate(592, 150)">
      <rect width="64" height="22" rx="11" fill="#8b949e33" stroke="#8b949e"/>
      <text x="32" y="15" font-size="11" fill="#c9d1d9" text-anchor="middle">Windows</text>
    </g>
  </g>

  <!-- Footer -->
  <g transform="translate(24, 584)">
    <text font-size="13" fill="#3fb950">$</text>
    <text x="16" font-size="13" fill="#d2a8ff" font-style="italic">"Constantly learning, always hacking."</text>
    <text x="316" font-size="13" fill="#58a6ff">▌
      <animate attributeName="opacity" values="1;0" dur="1.0s" repeatCount="indefinite"/>
    </text>
  </g>
</svg>
