<svg width="860" height="540" viewBox="0 0 860 540" xmlns="http://www.w3.org/2000/svg" font-family="'SFMono-Regular', 'Fira Code', Menlo, Consolas, monospace">
  <!-- Window chrome -->
  <rect width="860" height="540" rx="10" fill="#0d1117" stroke="#30363d"/>
  <rect width="860" height="36" rx="10" fill="#161b22"/>
  <rect y="20" width="860" height="16" fill="#161b22"/>

  <circle cx="22" cy="18" r="6" fill="#ff5f56"/>
  <circle cx="44" cy="18" r="6" fill="#ffbd2e"/>
  <circle cx="66" cy="18" r="6" fill="#27c93f"/>

  <text x="430" y="22" font-size="13" fill="#8b949e" text-anchor="middle">avanish@4vanish: ~/profile</text>

  <g>
    <circle cx="794" cy="18" r="4" fill="#3fb950">
      <animate attributeName="opacity" values="1;0.3;1" dur="1.6s" repeatCount="indefinite"/>
    </circle>
    <text x="806" y="22" font-size="11" fill="#3fb950" font-weight="600">ACTIVE</text>
  </g>

  <!-- Prompt -->
  <g transform="translate(24, 66)">
    <text font-size="13" fill="#ffa657">avanish</text>
    <text x="56" font-size="13" fill="#8b949e">@</text>
    <text x="68" font-size="13" fill="#79c0ff">4vanish</text>
    <text x="128" font-size="13" fill="#8b949e">~</text>
    <text x="140" font-size="13" fill="#3fb950">$</text>
    <text x="156" font-size="13" fill="#c9d1d9">cat profile.json</text>
  </g>

  <!-- IDENTITY (slim, no stats) -->
  <g transform="translate(24, 92)">
    <rect width="812" height="92" rx="8" fill="#161b22" stroke="#30363d"/>
    <text x="14" y="22" font-size="11" fill="#7ee787" font-weight="600">▸ IDENTITY</text>
    <line x1="14" y1="30" x2="798" y2="30" stroke="#21262d"/>

    <text x="14" y="52" font-size="12" fill="#8b949e">name</text>
    <text x="110" y="52" font-size="12" fill="#c9d1d9">Avanish Pathak</text>

    <text x="14" y="70" font-size="12" fill="#8b949e">role</text>
    <text x="110" y="70" font-size="12" fill="#c9d1d9">Security Researcher · Red Team · Penetration Tester</text>

    <text x="14" y="88" font-size="12" fill="#8b949e">located</text>
    <text x="110" y="88" font-size="12" fill="#c9d1d9">Abu Dhabi, UAE 🇦🇪</text>
  </g>

  <!-- DOMAINS -->
  <g transform="translate(24, 200)">
    <rect width="812" height="64" rx="8" fill="#161b22" stroke="#30363d"/>
    <text x="14" y="22" font-size="11" fill="#7ee787" font-weight="600">▸ DOMAINS</text>
    <line x1="14" y1="30" x2="798" y2="30" stroke="#21262d"/>

    <g transform="translate(14, 40)">
      <rect width="56" height="18" rx="9" fill="#1f6feb33" stroke="#1f6feb"/>
      <text x="28" y="12" font-size="10" fill="#79c0ff" text-anchor="middle">Web</text>
    </g>
    <g transform="translate(78, 40)">
      <rect width="64" height="18" rx="9" fill="#1f6feb33" stroke="#1f6feb"/>
      <text x="32" y="12" font-size="10" fill="#79c0ff" text-anchor="middle">Mobile</text>
    </g>
    <g transform="translate(150, 40)">
      <rect width="48" height="18" rx="9" fill="#1f6feb33" stroke="#1f6feb"/>
      <text x="24" y="12" font-size="10" fill="#79c0ff" text-anchor="middle">API</text>
    </g>
    <g transform="translate(206, 40)">
      <rect width="44" height="18" rx="9" fill="#1f6feb33" stroke="#1f6feb"/>
      <text x="22" y="12" font-size="10" fill="#79c0ff" text-anchor="middle">OT</text>
    </g>
    <g transform="translate(258, 40)">
      <rect width="74" height="18" rx="9" fill="#1f6feb33" stroke="#1f6feb"/>
      <text x="37" y="12" font-size="10" fill="#79c0ff" text-anchor="middle">Network</text>
    </g>
    <g transform="translate(340, 40)">
      <rect width="92" height="18" rx="9" fill="#1f6feb33" stroke="#1f6feb"/>
      <text x="46" y="12" font-size="10" fill="#79c0ff" text-anchor="middle">Cloud · AWS</text>
    </g>
    <g transform="translate(440, 40)">
      <rect width="68" height="18" rx="9" fill="#bf5af233" stroke="#bf5af2"/>
      <text x="34" y="12" font-size="10" fill="#d2a8ff" text-anchor="middle">AI / LLM</text>
    </g>
  </g>

  <!-- SKILLS — pill badges, multiple rows, same style as domains -->
  <g transform="translate(24, 284)">
    <rect width="812" height="200" rx="8" fill="#161b22" stroke="#30363d"/>
    <text x="14" y="22" font-size="11" fill="#7ee787" font-weight="600">▸ SKILLS</text>
    <line x1="14" y1="30" x2="798" y2="30" stroke="#21262d"/>

    <!-- Row 1 (y=44) -->
    <g transform="translate(14, 44)">
      <rect width="72" height="20" rx="10" fill="#bf5af233" stroke="#bf5af2"/>
      <text x="36" y="13" font-size="10" fill="#d2a8ff" text-anchor="middle">AI / LLM</text>
    </g>
    <g transform="translate(94, 44)">
      <rect width="86" height="20" rx="10" fill="#bf5af233" stroke="#bf5af2"/>
      <text x="43" y="13" font-size="10" fill="#d2a8ff" text-anchor="middle">AI Security</text>
    </g>
    <g transform="translate(188, 44)">
      <rect width="134" height="20" rx="10" fill="#1f6feb33" stroke="#1f6feb"/>
      <text x="67" y="13" font-size="10" fill="#79c0ff" text-anchor="middle">Android pentesting</text>
    </g>
    <g transform="translate(330, 44)">
      <rect width="88" height="20" rx="10" fill="#1f6feb33" stroke="#1f6feb"/>
      <text x="44" y="13" font-size="10" fill="#79c0ff" text-anchor="middle">API Security</text>
    </g>
    <g transform="translate(426, 44)">
      <rect width="98" height="20" rx="10" fill="#3fb95033" stroke="#3fb950"/>
      <text x="49" y="13" font-size="10" fill="#7ee787" text-anchor="middle">AWS Security</text>
    </g>
    <g transform="translate(532, 44)">
      <rect width="80" height="20" rx="10" fill="#f0883e33" stroke="#f0883e"/>
      <text x="40" y="13" font-size="10" fill="#ffa657" text-anchor="middle">Bug Bounty</text>
    </g>
    <g transform="translate(620, 44)">
      <rect width="140" height="20" rx="10" fill="#3fb95033" stroke="#3fb950"/>
      <text x="70" y="13" font-size="10" fill="#7ee787" text-anchor="middle">Cloud Config Review</text>
    </g>

    <!-- Row 2 (y=72) -->
    <g transform="translate(14, 72)">
      <rect width="84" height="20" rx="10" fill="#1f6feb33" stroke="#1f6feb"/>
      <text x="42" y="13" font-size="10" fill="#79c0ff" text-anchor="middle">Code Review</text>
    </g>
    <g transform="translate(106, 72)">
      <rect width="62" height="20" rx="10" fill="#8b949e33" stroke="#8b949e"/>
      <text x="31" y="13" font-size="10" fill="#c9d1d9" text-anchor="middle">Desktop</text>
    </g>
    <g transform="translate(176, 72)">
      <rect width="112" height="20" rx="10" fill="#8b949e33" stroke="#8b949e"/>
      <text x="56" y="13" font-size="10" fill="#c9d1d9" text-anchor="middle">External Network</text>
    </g>
    <g transform="translate(296, 72)">
      <rect width="110" height="20" rx="10" fill="#8b949e33" stroke="#8b949e"/>
      <text x="55" y="13" font-size="10" fill="#c9d1d9" text-anchor="middle">Internal Network</text>
    </g>
    <g transform="translate(414, 72)">
      <rect width="118" height="20" rx="10" fill="#8b949e33" stroke="#8b949e"/>
      <text x="59" y="13" font-size="10" fill="#c9d1d9" text-anchor="middle">PCI Segmentation</text>
    </g>
    <g transform="translate(540, 72)">
      <rect width="100" height="20" rx="10" fill="#1f6feb33" stroke="#1f6feb"/>
      <text x="50" y="13" font-size="10" fill="#79c0ff" text-anchor="middle">iOS pentesting</text>
    </g>
    <g transform="translate(648, 72)">
      <rect width="40" height="20" rx="10" fill="#8b949e33" stroke="#8b949e"/>
      <text x="20" y="13" font-size="10" fill="#c9d1d9" text-anchor="middle">IoT</text>
    </g>
    <g transform="translate(696, 72)">
      <rect width="52" height="20" rx="10" fill="#8b949e33" stroke="#8b949e"/>
      <text x="26" y="13" font-size="10" fill="#c9d1d9" text-anchor="middle">Linux</text>
    </g>

    <!-- Row 3 (y=100) -->
    <g transform="translate(14, 100)">
      <rect width="114" height="20" rx="10" fill="#8b949e33" stroke="#8b949e"/>
      <text x="57" y="13" font-size="10" fill="#c9d1d9" text-anchor="middle">Network Security</text>
    </g>
    <g transform="translate(136, 100)">
      <rect width="116" height="20" rx="10" fill="#f0883e33" stroke="#f0883e"/>
      <text x="58" y="13" font-size="10" fill="#ffa657" text-anchor="middle">Offensive Security</text>
    </g>
    <g transform="translate(260, 100)">
      <rect width="92" height="20" rx="10" fill="#f0883e33" stroke="#f0883e"/>
      <text x="46" y="13" font-size="10" fill="#ffa657" text-anchor="middle">Red Teaming</text>
    </g>
    <g transform="translate(360, 100)">
      <rect width="126" height="20" rx="10" fill="#1f6feb33" stroke="#1f6feb"/>
      <text x="63" y="13" font-size="10" fill="#79c0ff" text-anchor="middle">Secure Code Review</text>
    </g>
    <g transform="translate(494, 100)">
      <rect width="122" height="20" rx="10" fill="#8b949e33" stroke="#8b949e"/>
      <text x="61" y="13" font-size="10" fill="#c9d1d9" text-anchor="middle">Security Hardening</text>
    </g>
    <g transform="translate(624, 100)">
      <rect width="80" height="20" rx="10" fill="#8b949e33" stroke="#8b949e"/>
      <text x="40" y="13" font-size="10" fill="#c9d1d9" text-anchor="middle">Thick Client</text>
    </g>
    <g transform="translate(712, 100)">
      <rect width="106" height="20" rx="10" fill="#f0883e33" stroke="#f0883e"/>
      <text x="53" y="13" font-size="10" fill="#ffa657" text-anchor="middle">Threat Modeling</text>
    </g>

    <!-- Row 4 (y=128) -->
    <g transform="translate(14, 128)">
      <rect width="148" height="20" rx="10" fill="#f0883e33" stroke="#f0883e"/>
      <text x="74" y="13" font-size="10" fill="#ffa657" text-anchor="middle">Vulnerability Assessment</text>
    </g>
    <g transform="translate(170, 128)">
      <rect width="130" height="20" rx="10" fill="#f0883e33" stroke="#f0883e"/>
      <text x="65" y="13" font-size="10" fill="#ffa657" text-anchor="middle">Vulnerability Research</text>
    </g>
    <g transform="translate(308, 128)">
      <rect width="156" height="20" rx="10" fill="#1f6feb33" stroke="#1f6feb"/>
      <text x="78" y="13" font-size="10" fill="#79c0ff" text-anchor="middle">Web Application Security</text>
    </g>
    <g transform="translate(472, 128)">
      <rect width="64" height="20" rx="10" fill="#8b949e33" stroke="#8b949e"/>
      <text x="32" y="13" font-size="10" fill="#c9d1d9" text-anchor="middle">Windows</text>
    </g>
  </g>

  <!-- Footer with breathing room -->
  <g transform="translate(24, 510)">
    <text font-size="13" fill="#3fb950">$</text>
    <text x="16" font-size="13" fill="#d2a8ff" font-style="italic">"Constantly learning, always hacking."</text>
    <text x="316" font-size="13" fill="#58a6ff">▌
      <animate attributeName="opacity" values="1;0" dur="1.0s" repeatCount="indefinite"/>
    </text>
  </g>
</svg>
